<?xml version="1.0" encoding="utf-8"?>
<!-- Generator: Adobe Illustrator 16.2.1, SVG Export Plug-In . SVG Version: 6.00 Build 0)  -->
<!DOCTYPE svg PUBLIC "-//W3C//DTD SVG 1.1//EN" "http://www.w3.org/Graphics/SVG/1.1/DTD/svg11.dtd">
<svg version="1.1" id="Ebene_1" xmlns="http://www.w3.org/2000/svg" xmlns:xlink="http://www.w3.org/1999/xlink" x="0px" y="0px"
	 width="120px" height="117px" viewBox="0 0 120 117" enable-background="new 0 0 120 117" xml:space="preserve">
<g>
	<path fill="#002F55" d="M0,0h102.868C114.003,0,120,5.997,120,17.132l-0.002,99.939H17.135c-11.136,0-17.132-5.997-17.132-17.134
		L0,0L0,0L0,0z"/>
	<path fill-rule="evenodd" clip-rule="evenodd" fill="#FFFFFF" d="M80.39,79.739h8.777l3,3.001v11.324h-11.78
		c-1.48,0-2.348-0.856-2.348-2.347V85.57h11.077v-1.63l-1.515-1.513h-9.562v-0.345C78.039,80.607,78.892,79.739,80.39,79.739
		L80.39,79.739L80.39,79.739z M81.091,91.487h8.025V88.15h-8.025V91.487L81.091,91.487L81.091,91.487z M13.402,91.487h8.024V88.15
		h-8.024V91.487L13.402,91.487L13.402,91.487z M12.7,79.739h8.777l3.001,3.001v11.324H12.698c-1.481,0-2.348-0.856-2.348-2.347
		V85.57h11.076l0-1.63l-1.512-1.513H10.35v-0.345C10.35,80.607,11.203,79.739,12.7,79.739L12.7,79.739L12.7,79.739z M97.691,82.428
		v8.949h8.827v-8.949H97.691L97.691,82.428L97.691,82.428z M106.685,94.064l2.785,2.593h-4.097l-2.473-2.593h-5.915
		c-1.488,0-2.345-0.867-2.345-2.344V82.08c0-1.487,0.855-2.341,2.347-2.341h10.239c1.489,0,2.345,0.855,2.345,2.344v9.638
		c0,1.479-0.855,2.344-2.342,2.344H106.685L106.685,94.064L106.685,94.064z M75.803,91.062l-3.004,3.003H60.948V79.739h11.851
		l3,3.001L75.803,91.062L75.803,91.062L75.803,91.062z M71.234,91.377l1.515-1.514v-5.922l-1.515-1.514h-7.233v8.949H71.234
		L71.234,91.377L71.234,91.377z M40.601,79.739h0.704v8.497l-5.751,5.827h-3.242l-5.751-5.827v-6.153
		c0-1.482,0.856-2.344,2.346-2.344h0.706v7.23l4.398,4.457l4.243-4.3v-5.044C38.253,80.601,39.11,79.739,40.601,79.739
		L40.601,79.739L40.601,79.739z M46.439,82.428h8.828v8.949h-8.828V82.428L46.439,82.428L46.439,82.428z M58.319,91.721v-9.638
		c0-1.488-0.855-2.344-2.345-2.344h-10.24c-1.491,0-2.346,0.854-2.346,2.341v9.641c0,1.477,0.857,2.344,2.344,2.344h10.246
		C57.462,94.064,58.319,93.199,58.319,91.721L58.319,91.721L58.319,91.721z"/>
	<path fill-rule="evenodd" clip-rule="evenodd" fill="#009ACB" d="M47.612,60.902c-4.694,0-7.512-2.816-7.512-7.521V36.723h39.8
		v24.179H47.612L47.612,60.902L47.612,60.902z M71.784,43.776H48.45v10.073h23.334V43.776L71.784,43.776L71.784,43.776z
		 M40.103,21.521h32.285c4.781,0,7.508,2.718,7.508,7.521H40.103V21.521L40.103,21.521L40.103,21.521z"/>
</g>
</svg>
